<?xml version="1.0" encoding="UTF-8" standalone="no"?>
<!DOCTYPE svg PUBLIC "-//W3C//DTD SVG 1.1//EN"
 "http://www.w3.org/Graphics/SVG/1.1/DTD/svg11.dtd">
<!-- Generated by graphviz version 2.40.1 (20161225.0304)
 -->
<!-- Title: AdjecticalPhrase2 Pages: 1 -->
<svg width="138pt" height="116pt"
 viewBox="0.00 0.00 137.60 116.00" xmlns="http://www.w3.org/2000/svg" xmlns:xlink="http://www.w3.org/1999/xlink">
<g id="graph0" class="graph" transform="scale(1 1) rotate(0) translate(4 112)">
<title>AdjecticalPhrase2</title>
<polygon fill="#ffffff" stroke="transparent" points="-4,4 -4,-112 133.5975,-112 133.5975,4 -4,4"/>
<!-- AP -->
<g id="node1" class="node">
<title>AP</title>
<ellipse fill="none" stroke="#000000" cx="65.5975" cy="-90" rx="27" ry="18"/>
<text text-anchor="middle" x="65.5975" y="-86.3" font-family="Times,serif" font-size="14.00" fill="#000000">AP</text>
</g>
<!-- Adv -->
<g id="node2" class="node">
<title>Adv</title>
<ellipse fill="none" stroke="#000000" cx="28.5975" cy="-18" rx="28.6953" ry="18"/>
<text text-anchor="middle" x="28.5975" y="-14.3" font-family="Times,serif" font-size="14.00" fill="#000000">Adv</text>
</g>
<!-- AP&#45;&gt;Adv -->
<g id="edge1" class="edge">
<title>AP&#45;&gt;Adv</title>
<path fill="none" stroke="#000000" d="M56.829,-72.937C52.4695,-64.4537 47.1022,-54.0092 42.2222,-44.513"/>
<polygon fill="#000000" stroke="#000000" points="45.2438,-42.7352 37.56,-35.4407 39.0178,-45.9348 45.2438,-42.7352"/>
</g>
<!-- A -->
<g id="node3" class="node">
<title>A</title>
<ellipse fill="none" stroke="#000000" cx="102.5975" cy="-18" rx="27" ry="18"/>
<text text-anchor="middle" x="102.5975" y="-14.3" font-family="Times,serif" font-size="14.00" fill="#000000">A</text>
</g>
<!-- AP&#45;&gt;A -->
<g id="edge2" class="edge">
<title>AP&#45;&gt;A</title>
<path fill="none" stroke="#000000" d="M74.3659,-72.937C78.7254,-64.4537 84.0927,-54.0092 88.9727,-44.513"/>
<polygon fill="#000000" stroke="#000000" points="92.1772,-45.9348 93.6349,-35.4407 85.9511,-42.7352 92.1772,-45.9348"/>
</g>
</g>
</svg>
