<?xml version="1.0" encoding="UTF-8" standalone="no"?>
<!DOCTYPE svg PUBLIC "-//W3C//DTD SVG 1.1//EN"
 "http://www.w3.org/Graphics/SVG/1.1/DTD/svg11.dtd">
<!-- Generated by graphviz version 2.40.1 (20161225.0304)
 -->
<!-- Title: AdverbialPhrase1 Pages: 1 -->
<svg width="166pt" height="116pt"
 viewBox="0.00 0.00 165.54 116.00" xmlns="http://www.w3.org/2000/svg" xmlns:xlink="http://www.w3.org/1999/xlink">
<g id="graph0" class="graph" transform="scale(1 1) rotate(0) translate(4 112)">
<title>AdverbialPhrase1</title>
<polygon fill="#ffffff" stroke="transparent" points="-4,4 -4,-112 161.5438,-112 161.5438,4 -4,4"/>
<!-- AdvP1 -->
<g id="node1" class="node">
<title>AdvP1</title>
<ellipse fill="none" stroke="#000000" cx="84.9464" cy="-90" rx="40.8928" ry="18"/>
<text text-anchor="middle" x="84.9464" y="-86.3" font-family="Times,serif" font-size="14.00" fill="#000000">AdvP1</text>
</g>
<!-- AdvP2 -->
<g id="node2" class="node">
<title>AdvP2</title>
<ellipse fill="none" stroke="#000000" cx="40.9464" cy="-18" rx="40.8928" ry="18"/>
<text text-anchor="middle" x="40.9464" y="-14.3" font-family="Times,serif" font-size="14.00" fill="#000000">AdvP2</text>
</g>
<!-- AdvP1&#45;&gt;AdvP2 -->
<g id="edge1" class="edge">
<title>AdvP1&#45;&gt;AdvP2</title>
<path fill="none" stroke="#000000" d="M74.2952,-72.5708C69.0913,-64.0553 62.7207,-53.6308 56.9471,-44.183"/>
<polygon fill="#000000" stroke="#000000" points="59.853,-42.226 51.652,-35.5182 53.88,-45.8762 59.853,-42.226"/>
</g>
<!-- Adv -->
<g id="node3" class="node">
<title>Adv</title>
<ellipse fill="none" stroke="#000000" cx="128.9464" cy="-18" rx="28.6953" ry="18"/>
<text text-anchor="middle" x="128.9464" y="-14.3" font-family="Times,serif" font-size="14.00" fill="#000000">Adv</text>
</g>
<!-- AdvP1&#45;&gt;Adv -->
<g id="edge2" class="edge">
<title>AdvP1&#45;&gt;Adv</title>
<path fill="none" stroke="#000000" d="M95.5975,-72.5708C100.84,-63.9922 107.2664,-53.4762 113.0739,-43.9732"/>
<polygon fill="#000000" stroke="#000000" points="116.1652,-45.6266 118.3933,-35.2687 110.1922,-41.9764 116.1652,-45.6266"/>
</g>
</g>
</svg>
