<?xml version="1.0" encoding="UTF-8" standalone="no"?>
<!DOCTYPE svg PUBLIC "-//W3C//DTD SVG 1.1//EN"
 "http://www.w3.org/Graphics/SVG/1.1/DTD/svg11.dtd">
<!-- Generated by graphviz version 2.40.1 (20161225.0304)
 -->
<!-- Title: NounPhrase1 Pages: 1 -->
<svg width="152pt" height="98pt"
 viewBox="0.00 0.00 152.00 98.00" xmlns="http://www.w3.org/2000/svg" xmlns:xlink="http://www.w3.org/1999/xlink">
<g id="graph0" class="graph" transform="scale(1 1) rotate(0) translate(4 94)">
<title>NounPhrase1</title>
<polygon fill="#ffffff" stroke="transparent" points="-4,4 -4,-94 148,-94 148,4 -4,4"/>
<!-- NP -->
<g id="node1" class="node">
<title>NP</title>
<ellipse fill="none" stroke="#000000" cx="27" cy="-45" rx="27" ry="18"/>
<text text-anchor="middle" x="27" y="-41.3" font-family="Times,serif" font-size="14.00" fill="#000000">NP</text>
</g>
<!-- D -->
<g id="node2" class="node">
<title>D</title>
<ellipse fill="none" stroke="#000000" cx="117" cy="-72" rx="27" ry="18"/>
<text text-anchor="middle" x="117" y="-68.3" font-family="Times,serif" font-size="14.00" fill="#000000">D</text>
</g>
<!-- NP&#45;&gt;D -->
<g id="edge1" class="edge">
<title>NP&#45;&gt;D</title>
<path fill="none" stroke="#000000" d="M52.07,-52.521C61.5102,-55.3531 72.4169,-58.6251 82.564,-61.6692"/>
<polygon fill="#000000" stroke="#000000" points="81.7915,-65.0915 92.3755,-64.6126 83.803,-58.3867 81.7915,-65.0915"/>
</g>
<!-- N -->
<g id="node3" class="node">
<title>N</title>
<ellipse fill="none" stroke="#000000" cx="117" cy="-18" rx="27" ry="18"/>
<text text-anchor="middle" x="117" y="-14.3" font-family="Times,serif" font-size="14.00" fill="#000000">N</text>
</g>
<!-- NP&#45;&gt;N -->
<g id="edge2" class="edge">
<title>NP&#45;&gt;N</title>
<path fill="none" stroke="#000000" d="M52.07,-37.479C61.5102,-34.6469 72.4169,-31.3749 82.564,-28.3308"/>
<polygon fill="#000000" stroke="#000000" points="83.803,-31.6133 92.3755,-25.3874 81.7915,-24.9085 83.803,-31.6133"/>
</g>
</g>
</svg>
