<?xml version="1.0" encoding="UTF-8" standalone="no"?>
<!DOCTYPE svg PUBLIC "-//W3C//DTD SVG 1.1//EN"
 "http://www.w3.org/Graphics/SVG/1.1/DTD/svg11.dtd">
<!-- Generated by graphviz version 2.40.1 (20161225.0304)
 -->
<!-- Title: NounPhrase2 Pages: 1 -->
<svg width="152pt" height="152pt"
 viewBox="0.00 0.00 152.00 152.00" xmlns="http://www.w3.org/2000/svg" xmlns:xlink="http://www.w3.org/1999/xlink">
<g id="graph0" class="graph" transform="scale(1 1) rotate(0) translate(4 148)">
<title>NounPhrase2</title>
<polygon fill="#ffffff" stroke="transparent" points="-4,4 -4,-148 148,-148 148,4 -4,4"/>
<!-- NP -->
<g id="node1" class="node">
<title>NP</title>
<ellipse fill="none" stroke="#000000" cx="27" cy="-72" rx="27" ry="18"/>
<text text-anchor="middle" x="27" y="-68.3" font-family="Times,serif" font-size="14.00" fill="#000000">NP</text>
</g>
<!-- D -->
<g id="node2" class="node">
<title>D</title>
<ellipse fill="none" stroke="#000000" cx="117" cy="-126" rx="27" ry="18"/>
<text text-anchor="middle" x="117" y="-122.3" font-family="Times,serif" font-size="14.00" fill="#000000">D</text>
</g>
<!-- NP&#45;&gt;D -->
<g id="edge1" class="edge">
<title>NP&#45;&gt;D</title>
<path fill="none" stroke="#000000" d="M47.4224,-84.2534C59.3897,-91.4338 74.7024,-100.6215 87.9143,-108.5486"/>
<polygon fill="#000000" stroke="#000000" points="86.2827,-111.6513 96.6584,-113.7951 89.8842,-105.6488 86.2827,-111.6513"/>
</g>
<!-- A -->
<g id="node3" class="node">
<title>A</title>
<ellipse fill="none" stroke="#000000" cx="117" cy="-72" rx="27" ry="18"/>
<text text-anchor="middle" x="117" y="-68.3" font-family="Times,serif" font-size="14.00" fill="#000000">A</text>
</g>
<!-- NP&#45;&gt;A -->
<g id="edge2" class="edge">
<title>NP&#45;&gt;A</title>
<path fill="none" stroke="#000000" d="M54.003,-72C62.0277,-72 70.9665,-72 79.5309,-72"/>
<polygon fill="#000000" stroke="#000000" points="79.7051,-75.5001 89.705,-72 79.705,-68.5001 79.7051,-75.5001"/>
</g>
<!-- N -->
<g id="node4" class="node">
<title>N</title>
<ellipse fill="none" stroke="#000000" cx="117" cy="-18" rx="27" ry="18"/>
<text text-anchor="middle" x="117" y="-14.3" font-family="Times,serif" font-size="14.00" fill="#000000">N</text>
</g>
<!-- NP&#45;&gt;N -->
<g id="edge3" class="edge">
<title>NP&#45;&gt;N</title>
<path fill="none" stroke="#000000" d="M47.4224,-59.7466C59.3897,-52.5662 74.7024,-43.3785 87.9143,-35.4514"/>
<polygon fill="#000000" stroke="#000000" points="89.8842,-38.3512 96.6584,-30.2049 86.2827,-32.3487 89.8842,-38.3512"/>
</g>
</g>
</svg>
