<?xml version="1.0" encoding="UTF-8" standalone="no"?>
<!DOCTYPE svg PUBLIC "-//W3C//DTD SVG 1.1//EN"
 "http://www.w3.org/Graphics/SVG/1.1/DTD/svg11.dtd">
<!-- Generated by graphviz version 2.40.1 (20161225.0304)
 -->
<!-- Title: PhraseLevel Pages: 1 -->
<svg width="318pt" height="260pt"
 viewBox="0.00 0.00 318.00 260.00" xmlns="http://www.w3.org/2000/svg" xmlns:xlink="http://www.w3.org/1999/xlink">
<g id="graph0" class="graph" transform="scale(1 1) rotate(0) translate(4 256)">
<title>PhraseLevel</title>
<polygon fill="#ffffff" stroke="transparent" points="-4,4 -4,-256 314,-256 314,4 -4,4"/>
<!-- S -->
<g id="node1" class="node">
<title>S</title>
<ellipse fill="none" stroke="#000000" cx="135" cy="-234" rx="27" ry="18"/>
<text text-anchor="middle" x="135" y="-230.3" font-family="Times,serif" font-size="14.00" fill="#000000">S</text>
</g>
<!-- NP -->
<g id="node2" class="node">
<title>NP</title>
<ellipse fill="none" stroke="#000000" cx="99" cy="-162" rx="27" ry="18"/>
<text text-anchor="middle" x="99" y="-158.3" font-family="Times,serif" font-size="14.00" fill="#000000">NP</text>
</g>
<!-- S&#45;&gt;NP -->
<g id="edge1" class="edge">
<title>S&#45;&gt;NP</title>
<path fill="none" stroke="#000000" d="M126.2854,-216.5708C122.0403,-208.0807 116.8464,-197.6929 112.1337,-188.2674"/>
<polygon fill="#000000" stroke="#000000" points="115.237,-186.6477 107.6343,-179.2687 108.976,-189.7782 115.237,-186.6477"/>
</g>
<!-- VP -->
<g id="node3" class="node">
<title>VP</title>
<ellipse fill="none" stroke="#000000" cx="171" cy="-162" rx="27" ry="18"/>
<text text-anchor="middle" x="171" y="-158.3" font-family="Times,serif" font-size="14.00" fill="#000000">VP</text>
</g>
<!-- S&#45;&gt;VP -->
<g id="edge2" class="edge">
<title>S&#45;&gt;VP</title>
<path fill="none" stroke="#000000" d="M143.7146,-216.5708C147.9597,-208.0807 153.1536,-197.6929 157.8663,-188.2674"/>
<polygon fill="#000000" stroke="#000000" points="161.024,-189.7782 162.3657,-179.2687 154.763,-186.6477 161.024,-189.7782"/>
</g>
<!-- D1 -->
<g id="node4" class="node">
<title>D1</title>
<ellipse fill="none" stroke="#000000" cx="27" cy="-90" rx="27" ry="18"/>
<text text-anchor="middle" x="27" y="-86.3" font-family="Times,serif" font-size="14.00" fill="#000000">D1</text>
</g>
<!-- NP&#45;&gt;D1 -->
<g id="edge3" class="edge">
<title>NP&#45;&gt;D1</title>
<path fill="none" stroke="#000000" d="M83.7307,-146.7307C73.803,-136.803 60.6847,-123.6847 49.5637,-112.5637"/>
<polygon fill="#000000" stroke="#000000" points="51.7933,-109.8436 42.2473,-105.2473 46.8436,-114.7933 51.7933,-109.8436"/>
</g>
<!-- N1 -->
<g id="node5" class="node">
<title>N1</title>
<ellipse fill="none" stroke="#000000" cx="99" cy="-90" rx="27" ry="18"/>
<text text-anchor="middle" x="99" y="-86.3" font-family="Times,serif" font-size="14.00" fill="#000000">N1</text>
</g>
<!-- NP&#45;&gt;N1 -->
<g id="edge4" class="edge">
<title>NP&#45;&gt;N1</title>
<path fill="none" stroke="#000000" d="M99,-143.8314C99,-136.131 99,-126.9743 99,-118.4166"/>
<polygon fill="#000000" stroke="#000000" points="102.5001,-118.4132 99,-108.4133 95.5001,-118.4133 102.5001,-118.4132"/>
</g>
<!-- V -->
<g id="node6" class="node">
<title>V</title>
<ellipse fill="none" stroke="#000000" cx="171" cy="-90" rx="27" ry="18"/>
<text text-anchor="middle" x="171" y="-86.3" font-family="Times,serif" font-size="14.00" fill="#000000">V</text>
</g>
<!-- VP&#45;&gt;V -->
<g id="edge5" class="edge">
<title>VP&#45;&gt;V</title>
<path fill="none" stroke="#000000" d="M171,-143.8314C171,-136.131 171,-126.9743 171,-118.4166"/>
<polygon fill="#000000" stroke="#000000" points="174.5001,-118.4132 171,-108.4133 167.5001,-118.4133 174.5001,-118.4132"/>
</g>
<!-- NP2 -->
<g id="node7" class="node">
<title>NP2</title>
<ellipse fill="none" stroke="#000000" cx="247" cy="-90" rx="31.3957" ry="18"/>
<text text-anchor="middle" x="247" y="-86.3" font-family="Times,serif" font-size="14.00" fill="#000000">NP2</text>
</g>
<!-- VP&#45;&gt;NP2 -->
<g id="edge6" class="edge">
<title>VP&#45;&gt;NP2</title>
<path fill="none" stroke="#000000" d="M186.7472,-147.0816C197.3043,-137.0801 211.3994,-123.7269 223.3024,-112.4504"/>
<polygon fill="#000000" stroke="#000000" points="225.8961,-114.8144 230.7486,-105.3961 221.0819,-109.7327 225.8961,-114.8144"/>
</g>
<!-- D2 -->
<g id="node8" class="node">
<title>D2</title>
<ellipse fill="none" stroke="#000000" cx="211" cy="-18" rx="27" ry="18"/>
<text text-anchor="middle" x="211" y="-14.3" font-family="Times,serif" font-size="14.00" fill="#000000">D2</text>
</g>
<!-- NP2&#45;&gt;D2 -->
<g id="edge7" class="edge">
<title>NP2&#45;&gt;D2</title>
<path fill="none" stroke="#000000" d="M238.2854,-72.5708C234.0403,-64.0807 228.8464,-53.6929 224.1337,-44.2674"/>
<polygon fill="#000000" stroke="#000000" points="227.237,-42.6477 219.6343,-35.2687 220.976,-45.7782 227.237,-42.6477"/>
</g>
<!-- N2 -->
<g id="node9" class="node">
<title>N2</title>
<ellipse fill="none" stroke="#000000" cx="283" cy="-18" rx="27" ry="18"/>
<text text-anchor="middle" x="283" y="-14.3" font-family="Times,serif" font-size="14.00" fill="#000000">N2</text>
</g>
<!-- NP2&#45;&gt;N2 -->
<g id="edge8" class="edge">
<title>NP2&#45;&gt;N2</title>
<path fill="none" stroke="#000000" d="M255.7146,-72.5708C259.9597,-64.0807 265.1536,-53.6929 269.8663,-44.2674"/>
<polygon fill="#000000" stroke="#000000" points="273.024,-45.7782 274.3657,-35.2687 266.763,-42.6477 273.024,-45.7782"/>
</g>
</g>
</svg>
